<svg width="37" height="33" viewBox="0 0 37 33" fill="none" xmlns="http://www.w3.org/2000/svg">
<path d="M31.209 0.529785L36.8965 10.5298H30.5215L26.209 0.529785H31.209ZM23.209 0.529785L27.5215 10.5298H10.209L14.5215 0.529785H23.209ZM6.52148 0.529785H11.5215L7.20898 10.5298H0.896484L6.52148 0.529785ZM0.896484 12.5298H7.14648L14.834 28.2798C14.959 28.4673 14.709 28.6548 14.5215 28.4673L0.896484 12.5298ZM10.1465 12.5298H27.584L19.0215 32.4673C18.959 32.5923 18.7715 32.5923 18.709 32.4673L10.1465 12.5298ZM22.8965 28.2798L30.584 12.5298H36.8965L23.209 28.4673C23.084 28.6548 22.7715 28.4673 22.8965 28.2798Z" fill="#D4AF37"/>
</svg>
